<?xml version="1.0" standalone="no"?>
<svg xmlns="http://www.w3.org/2000/svg" width="1120" height="504.1796875"><g transform="translate(70,20)"><g class="x axis" transform="translate(0,400)" fill="none" font-size="10" font-family="sans-serif" text-anchor="middle"><path class="domain" stroke="#000" d="M0.5,6V0.5H1000.5V6"/><g class="tick" opacity="1" transform="translate(177.41935483870972,0)"><line stroke="#000" y2="6"/><text fill="#000" y="9" dy="-0.5em" dx="-.8em" style="text-anchor: end;" transform="rotate(-90)">B (n=5)</text></g><g class="tick" opacity="1" transform="translate(500,0)"><line stroke="#000" y2="6"/><text fill="#000" y="9" dy="-0.5em" dx="-.8em" style="text-anchor: end;" transform="rotate(-90)">G (n=5)</text></g><g class="tick" opacity="1" transform="translate(822.5806451612904,0)"><line stroke="#000" y2="6"/><text fill="#000" y="9" dy="-0.5em" dx="-.8em" style="text-anchor: end;" transform="rotate(-90)">K (n=5)</text></g></g><g class="y axis" fill="none" font-size="10" font-family="sans-serif" text-anchor="end"><path class="domain" stroke="#000" d="M-6,400.5H0.5V0.5H-6"/><g class="tick" opacity="1" transform="translate(0,400.5)"><line stroke="#000" x2="-6"/><text fill="#000" x="-9" dy="0.32em">4.0</text></g><g class="tick" opacity="1" transform="translate(0,356.05555555555554)"><line stroke="#000" x2="-6"/><text fill="#000" x="-9" dy="0.32em">4.2</text></g><g class="tick" opacity="1" transform="translate(0,311.61111111111103)"><line stroke="#000" x2="-6"/><text fill="#000" x="-9" dy="0.32em">4.4</text></g><g class="tick" opacity="1" transform="translate(0,267.16666666666674)"><line stroke="#000" x2="-6"/><text fill="#000" x="-9" dy="0.32em">4.6</text></g><g class="tick" opacity="1" transform="translate(0,222.72222222222226)"><line stroke="#000" x2="-6"/><text fill="#000" x="-9" dy="0.32em">4.8</text></g><g class="tick" opacity="1" transform="translate(0,178.27777777777777)"><line stroke="#000" x2="-6"/><text fill="#000" x="-9" dy="0.32em">5.0</text></g><g class="tick" opacity="1" transform="translate(0,133.83333333333326)"><line stroke="#000" x2="-6"/><text fill="#000" x="-9" dy="0.32em">5.2</text></g><g class="tick" opacity="1" transform="translate(0,89.3888888888888)"><line stroke="#000" x2="-6"/><text fill="#000" x="-9" dy="0.32em">5.4</text></g><g class="tick" opacity="1" transform="translate(0,44.944444444444514)"><line stroke="#000" x2="-6"/><text fill="#000" x="-9" dy="0.32em">5.6</text></g><g class="tick" opacity="1" transform="translate(0,0.5)"><line stroke="#000" x2="-6"/><text fill="#000" x="-9" dy="0.32em">5.8</text></g></g><text class="x label" text-anchor="middle" transform="translate(500,474.1796875)" style="font: 12px sans-serif;">dog</text><text class="y label" text-anchor="middle" transform="translate(-50,200)rotate(-90)" style="font: 12px sans-serif;">faith_pd</text><line class="center" x1="177.41935483870972" y1="386.09678911111115" x2="177.41935483870972" y2="177.69063088888893" stroke-dasharray="2,2" stroke-width="1" stroke="black"/><line class="center" x1="500" y1="183.37139177777772" x2="500" y2="20.136799777777696" stroke-dasharray="2,2" stroke-width="1" stroke="black"/><line class="center" x1="822.5806451612904" y1="323.52339244444437" x2="822.5806451612904" y2="232.60160711111118" stroke-dasharray="2,2" stroke-width="1" stroke="black"/><g class="outlier" transform="translate(177.41935483870972,0)"/><g class="outlier" transform="translate(500,0)"/><g class="outlier" transform="translate(822.5806451612904,0)"><circle r="4" stroke-width="1" stroke="black" stroke-opacity="0.3" fill="black" fill-opacity="0.33" cx="0" cy="101.75301866666666"/></g><rect class="box" x="32.25806451612908" y="238.37082933333323" width="290.3225806451613" height="96.86948466666678" fill="white" stroke-width="1" stroke="black"/><rect class="box" x="354.8387096774194" y="54.06095444444446" width="290.3225806451613" height="87.05990888888891" fill="white" stroke-width="1" stroke="black"/><rect class="box" x="677.4193548387098" y="232.60160711111118" width="290.3225806451613" height="63.49064933333321" fill="white" stroke-width="1" stroke="black"/><line class="median" x1="32.25806451612908" y1="266.7453502222222" x2="322.58064516129036" y2="266.7453502222222" stroke-width="1" stroke="black"/><line class="median" x1="354.8387096774194" y1="97.56730111111114" x2="645.1612903225807" y2="97.56730111111114" stroke-width="1" stroke="black"/><line class="median" x1="677.4193548387098" y1="247.14681666666672" x2="967.741935483871" y2="247.14681666666672" stroke-width="1" stroke="black"/><g class="whisker" transform="translate(104.8387096774194,0)"><line class="median" x1="0" y1="386.09678911111115" x2="145.16129032258064" y2="386.09678911111115" stroke-width="1" stroke="black"/><line class="median" x1="0" y1="177.69063088888893" x2="145.16129032258064" y2="177.69063088888893" stroke-width="1" stroke="black"/></g><g class="whisker" transform="translate(427.4193548387097,0)"><line class="median" x1="0" y1="183.37139177777772" x2="145.16129032258064" y2="183.37139177777772" stroke-width="1" stroke="black"/><line class="median" x1="0" y1="20.136799777777696" x2="145.16129032258064" y2="20.136799777777696" stroke-width="1" stroke="black"/></g><g class="whisker" transform="translate(750.0000000000001,0)"><line class="median" x1="0" y1="323.52339244444437" x2="145.16129032258064" y2="323.52339244444437" stroke-width="1" stroke="black"/><line class="median" x1="0" y1="232.60160711111118" x2="145.16129032258064" y2="232.60160711111118" stroke-width="1" stroke="black"/></g></g></svg>