<?xml version="1.0" standalone="no"?>
<svg xmlns="http://www.w3.org/2000/svg" width="1120" height="504.1796875"><g transform="translate(70,20)"><g class="x axis" transform="translate(0,400)" fill="none" font-size="10" font-family="sans-serif" text-anchor="middle"><path class="domain" stroke="#000" d="M0.5,6V0.5H1000.5V6"/><g class="tick" opacity="1" transform="translate(177.41935483870972,0)"><line stroke="#000" y2="6"/><text fill="#000" y="9" dy="-0.5em" dx="-.8em" style="text-anchor: end;" transform="rotate(-90)">B (n=5)</text></g><g class="tick" opacity="1" transform="translate(500,0)"><line stroke="#000" y2="6"/><text fill="#000" y="9" dy="-0.5em" dx="-.8em" style="text-anchor: end;" transform="rotate(-90)">G (n=5)</text></g><g class="tick" opacity="1" transform="translate(822.5806451612904,0)"><line stroke="#000" y2="6"/><text fill="#000" y="9" dy="-0.5em" dx="-.8em" style="text-anchor: end;" transform="rotate(-90)">K (n=5)</text></g></g><g class="y axis" fill="none" font-size="10" font-family="sans-serif" text-anchor="end"><path class="domain" stroke="#000" d="M-6,400.5H0.5V0.5H-6"/><g class="tick" opacity="1" transform="translate(0,350.5000000000002)"><line stroke="#000" x2="-6"/><text fill="#000" x="-9" dy="0.32em">0.58</text></g><g class="tick" opacity="1" transform="translate(0,300.5000000000001)"><line stroke="#000" x2="-6"/><text fill="#000" x="-9" dy="0.32em">0.60</text></g><g class="tick" opacity="1" transform="translate(0,250.50000000000006)"><line stroke="#000" x2="-6"/><text fill="#000" x="-9" dy="0.32em">0.62</text></g><g class="tick" opacity="1" transform="translate(0,200.5)"><line stroke="#000" x2="-6"/><text fill="#000" x="-9" dy="0.32em">0.64</text></g><g class="tick" opacity="1" transform="translate(0,150.49999999999991)"><line stroke="#000" x2="-6"/><text fill="#000" x="-9" dy="0.32em">0.66</text></g><g class="tick" opacity="1" transform="translate(0,100.49999999999989)"><line stroke="#000" x2="-6"/><text fill="#000" x="-9" dy="0.32em">0.68</text></g><g class="tick" opacity="1" transform="translate(0,50.500000000000114)"><line stroke="#000" x2="-6"/><text fill="#000" x="-9" dy="0.32em">0.70</text></g><g class="tick" opacity="1" transform="translate(0,0.5)"><line stroke="#000" x2="-6"/><text fill="#000" x="-9" dy="0.32em">0.72</text></g></g><text class="x label" text-anchor="middle" transform="translate(500,474.1796875)" style="font: 12px sans-serif;">Dog</text><text class="y label" text-anchor="middle" transform="translate(-50,200)rotate(-90)" style="font: 12px sans-serif;">pielou_e</text><line class="center" x1="177.41935483870972" y1="375.40643625" x2="177.41935483870972" y2="13.892289749999918" stroke-dasharray="2,2" stroke-width="1" stroke="black"/><line class="center" x1="500" y1="252.8671322500002" x2="500" y2="34.58551650000004" stroke-dasharray="2,2" stroke-width="1" stroke="black"/><line class="center" x1="822.5806451612904" y1="226.0529670000001" x2="822.5806451612904" y2="146.72531349999994" stroke-dasharray="2,2" stroke-width="1" stroke="black"/><g class="outlier" transform="translate(177.41935483870972,0)"/><g class="outlier" transform="translate(500,0)"/><g class="outlier" transform="translate(822.5806451612904,0)"><circle r="4" stroke-width="1" stroke="black" stroke-opacity="0.3" fill="black" fill-opacity="0.33" cx="0" cy="331.9421157500001"/></g><rect class="box" x="32.25806451612908" y="89.17869400000006" width="290.3225806451613" height="236.77905449999992" fill="white" stroke-width="1" stroke="black"/><rect class="box" x="354.8387096774194" y="124.55880925000002" width="290.3225806451613" height="99.76514425000005" fill="white" stroke-width="1" stroke="black"/><rect class="box" x="677.4193548387098" y="169.89888250000013" width="290.3225806451613" height="56.15408449999998" fill="white" stroke-width="1" stroke="black"/><line class="median" x1="32.25806451612908" y1="312.5507415000002" x2="322.58064516129036" y2="312.5507415000002" stroke-width="1" stroke="black"/><line class="median" x1="354.8387096774194" y1="199.48645" x2="645.1612903225807" y2="199.48645" stroke-width="1" stroke="black"/><line class="median" x1="677.4193548387098" y1="179.1882300000001" x2="967.741935483871" y2="179.1882300000001" stroke-width="1" stroke="black"/><g class="whisker" transform="translate(104.8387096774194,0)"><line class="median" x1="0" y1="375.40643625" x2="145.16129032258064" y2="375.40643625" stroke-width="1" stroke="black"/><line class="median" x1="0" y1="13.892289749999918" x2="145.16129032258064" y2="13.892289749999918" stroke-width="1" stroke="black"/></g><g class="whisker" transform="translate(427.4193548387097,0)"><line class="median" x1="0" y1="252.8671322500002" x2="145.16129032258064" y2="252.8671322500002" stroke-width="1" stroke="black"/><line class="median" x1="0" y1="34.58551650000004" x2="145.16129032258064" y2="34.58551650000004" stroke-width="1" stroke="black"/></g><g class="whisker" transform="translate(750.0000000000001,0)"><line class="median" x1="0" y1="226.0529670000001" x2="145.16129032258064" y2="226.0529670000001" stroke-width="1" stroke="black"/><line class="median" x1="0" y1="146.72531349999994" x2="145.16129032258064" y2="146.72531349999994" stroke-width="1" stroke="black"/></g></g></svg>