<?xml version="1.0" standalone="no"?>
<svg xmlns="http://www.w3.org/2000/svg" width="1120" height="504.1796875"><g transform="translate(70,20)"><g class="x axis" transform="translate(0,400)" fill="none" font-size="10" font-family="sans-serif" text-anchor="middle"><path class="domain" stroke="#000" d="M0.5,6V0.5H1000.5V6"/><g class="tick" opacity="1" transform="translate(177.41935483870972,0)"><line stroke="#000" y2="6"/><text fill="#000" y="9" dy="-0.5em" dx="-.8em" style="text-anchor: end;" transform="rotate(-90)">B (n=5)</text></g><g class="tick" opacity="1" transform="translate(500,0)"><line stroke="#000" y2="6"/><text fill="#000" y="9" dy="-0.5em" dx="-.8em" style="text-anchor: end;" transform="rotate(-90)">G (n=5)</text></g><g class="tick" opacity="1" transform="translate(822.5806451612904,0)"><line stroke="#000" y2="6"/><text fill="#000" y="9" dy="-0.5em" dx="-.8em" style="text-anchor: end;" transform="rotate(-90)">K (n=5)</text></g></g><g class="y axis" fill="none" font-size="10" font-family="sans-serif" text-anchor="end"><path class="domain" stroke="#000" d="M-6,400.5H0.5V0.5H-6"/><g class="tick" opacity="1" transform="translate(0,400.5)"><line stroke="#000" x2="-6"/><text fill="#000" x="-9" dy="0.32em">3.4</text></g><g class="tick" opacity="1" transform="translate(0,369.7307692307692)"><line stroke="#000" x2="-6"/><text fill="#000" x="-9" dy="0.32em">3.5</text></g><g class="tick" opacity="1" transform="translate(0,338.96153846153845)"><line stroke="#000" x2="-6"/><text fill="#000" x="-9" dy="0.32em">3.6</text></g><g class="tick" opacity="1" transform="translate(0,308.1923076923076)"><line stroke="#000" x2="-6"/><text fill="#000" x="-9" dy="0.32em">3.7</text></g><g class="tick" opacity="1" transform="translate(0,277.42307692307696)"><line stroke="#000" x2="-6"/><text fill="#000" x="-9" dy="0.32em">3.8</text></g><g class="tick" opacity="1" transform="translate(0,246.6538461538462)"><line stroke="#000" x2="-6"/><text fill="#000" x="-9" dy="0.32em">3.9</text></g><g class="tick" opacity="1" transform="translate(0,215.8846153846154)"><line stroke="#000" x2="-6"/><text fill="#000" x="-9" dy="0.32em">4.0</text></g><g class="tick" opacity="1" transform="translate(0,185.11538461538476)"><line stroke="#000" x2="-6"/><text fill="#000" x="-9" dy="0.32em">4.1</text></g><g class="tick" opacity="1" transform="translate(0,154.34615384615384)"><line stroke="#000" x2="-6"/><text fill="#000" x="-9" dy="0.32em">4.2</text></g><g class="tick" opacity="1" transform="translate(0,123.57692307692315)"><line stroke="#000" x2="-6"/><text fill="#000" x="-9" dy="0.32em">4.3</text></g><g class="tick" opacity="1" transform="translate(0,92.80769230769226)"><line stroke="#000" x2="-6"/><text fill="#000" x="-9" dy="0.32em">4.4</text></g><g class="tick" opacity="1" transform="translate(0,62.038461538461604)"><line stroke="#000" x2="-6"/><text fill="#000" x="-9" dy="0.32em">4.5</text></g><g class="tick" opacity="1" transform="translate(0,31.269230769230944)"><line stroke="#000" x2="-6"/><text fill="#000" x="-9" dy="0.32em">4.6</text></g><g class="tick" opacity="1" transform="translate(0,0.5)"><line stroke="#000" x2="-6"/><text fill="#000" x="-9" dy="0.32em">4.7</text></g></g><text class="x label" text-anchor="middle" transform="translate(500,474.1796875)" style="font: 12px sans-serif;">Dog</text><text class="y label" text-anchor="middle" transform="translate(-50,200)rotate(-90)" style="font: 12px sans-serif;">shannon</text><line class="center" x1="177.41935483870972" y1="378.81102975384607" x2="177.41935483870972" y2="26.185770123076964" stroke-dasharray="2,2" stroke-width="1" stroke="black"/><line class="center" x1="500" y1="183.815936123077" x2="500" y2="2.564930061538462" stroke-dasharray="2,2" stroke-width="1" stroke="black"/><line class="center" x1="822.5806451612904" y1="201.27995760000005" x2="822.5806451612904" y2="156.1214121538463" stroke-dasharray="2,2" stroke-width="1" stroke="black"/><g class="outlier" transform="translate(177.41935483870972,0)"/><g class="outlier" transform="translate(500,0)"/><g class="outlier" transform="translate(822.5806451612904,0)"><circle r="4" stroke-width="1" stroke="black" stroke-opacity="0.3" fill="black" fill-opacity="0.33" cx="0" cy="291.16406264615387"/></g><rect class="box" x="32.25806451612908" y="72.5355340615385" width="290.3225806451613" height="223.43901704615382" fill="white" stroke-width="1" stroke="black"/><rect class="box" x="354.8387096774194" y="79.12650464615382" width="290.3225806451613" height="101.91714916923078" fill="white" stroke-width="1" stroke="black"/><rect class="box" x="677.4193548387098" y="170.65198439999998" width="290.3225806451613" height="30.62797320000007" fill="white" stroke-width="1" stroke="black"/><line class="median" x1="32.25806451612908" y1="292.1164308" x2="322.58064516129036" y2="292.1164308" stroke-width="1" stroke="black"/><line class="median" x1="354.8387096774194" y1="170.5231873538462" x2="645.1612903225807" y2="170.5231873538462" stroke-width="1" stroke="black"/><line class="median" x1="677.4193548387098" y1="196.0269063999999" x2="967.741935483871" y2="196.0269063999999" stroke-width="1" stroke="black"/><g class="whisker" transform="translate(104.8387096774194,0)"><line class="median" x1="0" y1="378.81102975384607" x2="145.16129032258064" y2="378.81102975384607" stroke-width="1" stroke="black"/><line class="median" x1="0" y1="26.185770123076964" x2="145.16129032258064" y2="26.185770123076964" stroke-width="1" stroke="black"/></g><g class="whisker" transform="translate(427.4193548387097,0)"><line class="median" x1="0" y1="183.815936123077" x2="145.16129032258064" y2="183.815936123077" stroke-width="1" stroke="black"/><line class="median" x1="0" y1="2.564930061538462" x2="145.16129032258064" y2="2.564930061538462" stroke-width="1" stroke="black"/></g><g class="whisker" transform="translate(750.0000000000001,0)"><line class="median" x1="0" y1="201.27995760000005" x2="145.16129032258064" y2="201.27995760000005" stroke-width="1" stroke="black"/><line class="median" x1="0" y1="156.1214121538463" x2="145.16129032258064" y2="156.1214121538463" stroke-width="1" stroke="black"/></g></g></svg>